<svg width="147" height="39" viewBox="0 0 147 39" fill="none" xmlns="http://www.w3.org/2000/svg">
<path d="M14.1105 34.23V29.81C14.2705 29.75 14.4205 29.68 14.5705 29.59C16.6805 28.35 16.9005 24.81 15.0605 21.7C13.2205 18.59 10.0305 17.07 7.92048 18.31C5.81048 19.55 5.59048 23.09 7.42048 26.2C7.72048 26.7 8.05048 27.16 8.41048 27.58V30.87L3.86048 28.27V11.96L2.27048 10.91C0.820478 13.56 -0.00952148 16.59 -0.00952148 19.82C-0.00952148 29.86 7.95048 38.03 17.9105 38.36V36.45L14.1005 34.23H14.1105Z" fill="#079A48"/>
<path d="M8.83054 8.33001L11.6105 9.98001C11.5605 10.44 11.5505 10.94 11.5605 11.11C11.5905 13.56 14.9005 15.42 18.5205 15.38C22.1405 15.34 24.7105 13.15 24.6905 11C24.6705 8.55001 22.3105 6.63001 18.7005 6.53001C17.4805 6.49001 16.3005 6.74001 15.7605 6.84001L13.7305 5.54001L18.5505 2.79001L32.7605 11.05L34.3905 10.16C32.8205 7.58001 30.6005 5.35001 27.8005 3.74001C19.1105 -1.26999 8.05054 1.55001 2.80054 10.02L4.42054 11.04L8.84054 8.33001H8.83054Z" fill="#CB2026"/>
<path d="M33.2406 17.31L30.2206 18.89C30.1106 18.87 29.4406 18.24 29.2906 18.16C27.1506 16.97 24.0006 18.54 22.2406 21.7C20.4806 24.86 20.6306 28.47 22.7706 29.66C24.9106 30.85 28.0906 29.42 29.8506 26.26C30.1306 25.75 30.5106 24.57 30.6906 24.05L33.2606 22.56L33.2406 28.21L19.0706 36.49V38.35C22.0906 38.27 25.1306 37.44 27.9206 35.81C36.5806 30.74 39.6106 19.74 34.8606 10.98L33.2306 11.88V17.3L33.2406 17.31Z" fill="#36459C"/>
<path fill-rule="evenodd" clip-rule="evenodd" d="M50.3105 25.21H55.1905C56.2605 25.21 57.0405 25.47 57.5705 25.97C58.1005 26.48 58.3705 27.2 58.3705 28.13C58.3705 29.06 58.0705 29.84 57.5005 30.38C56.9305 30.92 56.0405 31.19 54.8605 31.19H53.2505V34.71H50.3005V25.21H50.3105ZM53.2605 29.26H53.9805C54.5505 29.26 54.9505 29.17 55.1805 28.97C55.4105 28.76 55.5305 28.52 55.5305 28.21C55.5305 27.9 55.4305 27.66 55.2305 27.45C55.0205 27.23 54.6605 27.13 54.1005 27.13H53.2605V29.25V29.26Z" fill="#010101"/>
<path fill-rule="evenodd" clip-rule="evenodd" d="M61.1504 30.06L58.6304 29.79C58.7204 29.35 58.8604 29 59.0404 28.75C59.2204 28.49 59.4804 28.28 59.8204 28.1C60.0504 27.97 60.3904 27.87 60.8104 27.79C61.2304 27.71 61.6904 27.68 62.1804 27.68C62.9704 27.68 63.6004 27.72 64.0804 27.81C64.5504 27.89 64.9504 28.08 65.2704 28.36C65.5004 28.56 65.6804 28.83 65.8004 29.19C65.9304 29.54 66.0004 29.89 66.0004 30.21V33.25C66.0004 33.58 66.0204 33.84 66.0604 34.02C66.1004 34.2 66.1904 34.44 66.3304 34.73H63.8604C63.7704 34.55 63.7004 34.41 63.6604 34.32C63.6404 34.23 63.6004 34.09 63.5704 33.89C63.2304 34.22 62.8804 34.45 62.5504 34.6C62.0804 34.8 61.5304 34.89 60.9204 34.89C60.1004 34.89 59.4704 34.71 59.0604 34.32C58.6304 33.94 58.4104 33.47 58.4104 32.92C58.4104 32.37 58.5704 31.96 58.8704 31.62C59.1804 31.28 59.7504 31.03 60.5704 30.87C61.5604 30.66 62.2004 30.53 62.5004 30.45C62.8004 30.37 63.1004 30.27 63.4304 30.13C63.4304 29.8 63.3704 29.58 63.2204 29.45C63.0904 29.32 62.8604 29.25 62.5204 29.25C62.0904 29.25 61.7604 29.31 61.5504 29.46C61.3904 29.56 61.2404 29.76 61.1404 30.06H61.1504ZM63.4304 31.44C63.0704 31.56 62.6904 31.69 62.2904 31.79C61.7604 31.93 61.4204 32.07 61.2704 32.21C61.1104 32.35 61.0504 32.52 61.0504 32.7C61.0504 32.91 61.1204 33.08 61.2704 33.21C61.4304 33.34 61.6304 33.42 61.9204 33.42C62.2104 33.42 62.4804 33.34 62.7404 33.2C63.0004 33.06 63.1704 32.88 63.2704 32.68C63.3804 32.47 63.4304 32.2 63.4304 31.87V31.45V31.44Z" fill="#010101"/>
<path fill-rule="evenodd" clip-rule="evenodd" d="M66.8406 27.83H69.3106V28.96C69.5606 28.47 69.7906 28.13 70.0506 27.96C70.3106 27.78 70.6106 27.68 70.9906 27.68C71.3706 27.68 71.8006 27.8 72.2706 28.04L71.4506 29.91C71.1306 29.78 70.8906 29.71 70.7006 29.71C70.3606 29.71 70.0906 29.85 69.9006 30.14C69.6206 30.54 69.4906 31.3 69.4906 32.4V34.72H66.8406V27.83Z" fill="#010101"/>
<path fill-rule="evenodd" clip-rule="evenodd" d="M77.1406 34.72V33.6C76.7806 34.06 76.4106 34.39 76.0306 34.58C75.6606 34.78 75.2006 34.87 74.6606 34.87C73.9306 34.87 73.3706 34.65 72.9606 34.22C72.5406 33.79 72.3406 33.13 72.3406 32.21V27.83H74.9906V31.63C74.9906 32.06 75.0706 32.37 75.2406 32.55C75.4006 32.72 75.6206 32.82 75.9006 32.82C76.2206 32.82 76.4706 32.7 76.6706 32.46C76.8806 32.21 76.9706 31.78 76.9706 31.15V27.83H79.6106V34.72H77.1506H77.1406Z" fill="#010101"/>
<path d="M83.1805 25.21H80.5405V34.71H83.1805V25.21Z" fill="#010101"/>
<path fill-rule="evenodd" clip-rule="evenodd" d="M86.8504 24.05C87.2604 24.05 87.6604 24.16 88.0504 24.37C88.4404 24.59 88.7504 24.88 88.9604 25.28C89.1804 25.67 89.2904 26.08 89.2904 26.5C89.2904 26.92 89.1904 27.33 88.9704 27.72C88.7504 28.11 88.4504 28.41 88.0604 28.62C87.6804 28.84 87.2704 28.95 86.8504 28.95C86.4304 28.95 86.0204 28.84 85.6304 28.62C85.2404 28.4 84.9304 28.11 84.7204 27.72C84.5104 27.33 84.4004 26.92 84.4004 26.5C84.4004 26.08 84.5004 25.67 84.7304 25.28C84.9504 24.88 85.2504 24.58 85.6404 24.37C86.0204 24.16 86.4304 24.05 86.8404 24.05H86.8504ZM86.8504 24.46C86.5004 24.46 86.1604 24.55 85.8504 24.73C85.5204 24.9 85.2604 25.16 85.0804 25.48C84.9004 25.81 84.8004 26.16 84.8004 26.5C84.8004 26.84 84.8904 27.2 85.0804 27.52C85.2504 27.85 85.5104 28.09 85.8404 28.28C86.1604 28.45 86.4904 28.55 86.8604 28.55C87.2304 28.55 87.5504 28.46 87.8804 28.28C88.2004 28.1 88.4504 27.85 88.6304 27.52C88.8104 27.2 88.9104 26.87 88.9104 26.5C88.9104 26.13 88.8204 25.8 88.6304 25.48C88.4504 25.16 88.1904 24.91 87.8604 24.73C87.5304 24.56 87.2104 24.46 86.8704 24.46H86.8504ZM85.7704 27.85H86.1904V26.73H86.4504C86.5904 26.73 86.7104 26.76 86.7904 26.82C86.9004 26.9 87.0504 27.11 87.2304 27.43L87.4604 27.84H87.9804L87.6504 27.33C87.4904 27.08 87.3704 26.91 87.2604 26.81C87.2104 26.76 87.1304 26.71 87.0404 26.67C87.2704 26.66 87.4504 26.58 87.5904 26.44C87.7204 26.3 87.8004 26.13 87.8004 25.94C87.8004 25.81 87.7604 25.67 87.6804 25.55C87.6004 25.44 87.4804 25.34 87.3504 25.3C87.2104 25.25 86.9804 25.22 86.6704 25.22H85.7704V27.86V27.85ZM86.1904 26.37H86.7104C86.9604 26.37 87.1204 26.34 87.2104 26.27C87.3004 26.2 87.3404 26.1 87.3404 25.98C87.3404 25.9 87.3204 25.82 87.2804 25.76C87.2304 25.7 87.1804 25.66 87.1004 25.63C87.0304 25.6 86.8804 25.58 86.6704 25.58H86.1904V26.37Z" fill="#010101"/>
<path fill-rule="evenodd" clip-rule="evenodd" d="M97.0004 25.55H98.1804V30.67C98.1804 31.56 98.0804 32.27 97.8704 32.8C97.6704 33.32 97.3104 33.74 96.7904 34.08C96.2604 34.41 95.5704 34.57 94.7204 34.57C93.8704 34.57 93.2004 34.43 92.6804 34.14C92.1504 33.85 91.7704 33.43 91.5404 32.89C91.3204 32.35 91.2004 31.61 91.2004 30.67V25.55H92.3804V30.67C92.3804 31.44 92.4504 32 92.6004 32.37C92.7304 32.74 92.9904 33.02 93.3404 33.21C93.6904 33.42 94.1104 33.51 94.6204 33.51C95.4804 33.51 96.0904 33.31 96.4604 32.92C96.8204 32.53 97.0004 31.77 97.0004 30.67V25.55ZM100.03 34.42V28H101.01V28.91C101.48 28.2 102.16 27.84 103.05 27.84C103.44 27.84 103.8 27.91 104.12 28.06C104.45 28.19 104.69 28.38 104.85 28.6C105.01 28.82 105.13 29.09 105.2 29.41C105.24 29.61 105.26 29.96 105.26 30.46V34.41H104.17V30.5C104.17 30.06 104.13 29.73 104.05 29.51C103.97 29.29 103.82 29.11 103.6 28.99C103.38 28.86 103.13 28.78 102.84 28.78C102.37 28.78 101.98 28.94 101.63 29.23C101.3 29.52 101.13 30.08 101.13 30.9V34.41H100.05L100.03 34.42ZM106.96 25.55H108.04V26.8H106.96V25.55ZM106.96 28H108.04V34.42H106.96V28ZM111.53 34.42L109.08 28H110.24L111.61 31.84C111.77 32.26 111.9 32.69 112.02 33.14C112.12 32.8 112.25 32.39 112.43 31.91L113.86 28H114.98L112.54 34.42H111.53ZM120.38 32.35L121.51 32.48C121.33 33.14 121 33.66 120.52 34.02C120.04 34.38 119.44 34.56 118.69 34.56C117.75 34.56 117 34.27 116.46 33.69C115.91 33.12 115.63 32.31 115.63 31.26C115.63 30.21 115.91 29.33 116.46 28.74C117.02 28.14 117.74 27.84 118.63 27.84C119.52 27.84 120.19 28.14 120.73 28.72C121.28 29.31 121.55 30.12 121.55 31.19V31.48H116.75C116.79 32.19 116.98 32.73 117.34 33.11C117.7 33.48 118.15 33.67 118.68 33.67C119.08 33.67 119.43 33.57 119.7 33.35C119.99 33.14 120.22 32.81 120.38 32.35ZM116.8 30.59H120.38C120.33 30.05 120.2 29.65 119.97 29.37C119.62 28.95 119.17 28.75 118.62 28.75C118.12 28.75 117.7 28.91 117.36 29.25C117.02 29.58 116.83 30.03 116.8 30.59ZM122.89 34.42V28H123.86V28.97C124.12 28.51 124.34 28.21 124.56 28.07C124.78 27.93 125 27.85 125.26 27.85C125.63 27.85 126 27.97 126.38 28.21L126.01 29.21C125.74 29.05 125.48 28.98 125.21 28.98C124.96 28.98 124.76 29.05 124.56 29.2C124.38 29.34 124.24 29.55 124.16 29.79C124.04 30.18 123.98 30.6 123.98 31.06V34.43H122.9L122.89 34.42ZM126.63 32.51L127.71 32.34C127.77 32.77 127.93 33.11 128.21 33.33C128.49 33.56 128.87 33.68 129.37 33.68C129.87 33.68 130.25 33.58 130.49 33.37C130.74 33.16 130.86 32.93 130.86 32.65C130.86 32.4 130.75 32.21 130.53 32.06C130.39 31.97 130.01 31.84 129.41 31.69C128.62 31.48 128.06 31.31 127.75 31.17C127.44 31.03 127.21 30.82 127.05 30.56C126.89 30.3 126.8 30.02 126.8 29.7C126.8 29.41 126.87 29.15 127.01 28.9C127.14 28.65 127.32 28.46 127.54 28.3C127.71 28.18 127.94 28.07 128.24 27.98C128.53 27.89 128.84 27.85 129.17 27.85C129.68 27.85 130.12 27.93 130.5 28.07C130.88 28.21 131.16 28.41 131.35 28.66C131.52 28.91 131.65 29.25 131.72 29.65L130.65 29.81C130.6 29.47 130.47 29.22 130.23 29.03C129.99 28.84 129.67 28.75 129.25 28.75C128.75 28.75 128.39 28.83 128.18 29C127.96 29.16 127.85 29.36 127.85 29.59C127.85 29.73 127.9 29.86 127.98 29.97C128.07 30.08 128.21 30.19 128.4 30.26C128.51 30.3 128.83 30.39 129.36 30.54C130.13 30.76 130.67 30.92 130.97 31.05C131.28 31.18 131.51 31.37 131.69 31.62C131.86 31.87 131.96 32.17 131.96 32.55C131.96 32.91 131.85 33.25 131.64 33.57C131.42 33.89 131.12 34.13 130.72 34.32C130.32 34.49 129.87 34.58 129.37 34.58C128.53 34.58 127.9 34.41 127.47 34.06C127.03 33.71 126.75 33.2 126.63 32.52V32.51ZM133.3 25.56H134.39V26.81H133.3V25.56ZM133.3 28.01H134.39V34.43H133.3V28.01ZM138.46 33.46L138.62 34.42C138.31 34.48 138.03 34.51 137.8 34.51C137.4 34.51 137.09 34.45 136.88 34.33C136.66 34.21 136.51 34.04 136.42 33.84C136.33 33.64 136.29 33.2 136.29 32.55V28.85H135.49V28.01H136.29V26.41L137.37 25.76V28.01H138.45V28.85H137.37V32.61C137.37 32.93 137.38 33.12 137.42 33.21C137.46 33.29 137.52 33.37 137.6 33.42C137.69 33.47 137.82 33.5 137.98 33.5C138.11 33.5 138.26 33.49 138.46 33.45V33.46ZM139.51 36.91L139.4 35.89C139.63 35.95 139.84 35.98 140.01 35.98C140.26 35.98 140.45 35.94 140.6 35.86C140.74 35.79 140.87 35.68 140.96 35.52C141.03 35.42 141.13 35.14 141.29 34.71C141.31 34.65 141.35 34.57 141.39 34.44L138.95 28.01H140.12L141.46 31.73C141.63 32.2 141.79 32.69 141.92 33.21C142.05 32.71 142.2 32.23 142.37 31.75L143.74 28.01H144.83L142.38 34.55C142.11 35.26 141.91 35.74 141.77 36.01C141.57 36.37 141.36 36.63 141.11 36.8C140.86 36.96 140.57 37.06 140.22 37.06C140 37.06 139.78 37 139.51 36.92V36.91Z" fill="#010101"/>
<path d="M60.2754 3.26074C60.2754 3.39193 60.2653 3.50798 60.2451 3.60889C60.2249 3.7098 60.1896 3.79557 60.1392 3.86621C60.0988 3.92676 60.0483 3.97721 59.9878 4.01758C59.9272 4.04785 59.8617 4.06299 59.791 4.06299H52.2075V11.48H59.3975C59.4681 11.48 59.5337 11.4951 59.5942 11.5254C59.6548 11.5456 59.7052 11.5859 59.7456 11.6465C59.7961 11.707 59.8314 11.7878 59.8516 11.8887C59.8717 11.9896 59.8818 12.1157 59.8818 12.2671C59.8818 12.3983 59.8717 12.5143 59.8516 12.6152C59.8314 12.7161 59.7961 12.8019 59.7456 12.8726C59.7052 12.9331 59.6548 12.9836 59.5942 13.0239C59.5337 13.0542 59.4681 13.0693 59.3975 13.0693H52.2075V21.6973C52.2075 21.7578 52.1924 21.8133 52.1621 21.8638C52.1318 21.9142 52.0814 21.9546 52.0107 21.9849C51.9401 22.0151 51.8442 22.0404 51.7231 22.0605C51.6121 22.0807 51.4658 22.0908 51.2842 22.0908C51.1126 22.0908 50.9663 22.0807 50.8452 22.0605C50.7241 22.0404 50.6283 22.0151 50.5576 21.9849C50.487 21.9546 50.4365 21.9142 50.4062 21.8638C50.376 21.8133 50.3608 21.7578 50.3608 21.6973V3.3667C50.3608 3.00342 50.4567 2.75618 50.6484 2.625C50.8402 2.48372 51.0269 2.41309 51.2085 2.41309H59.791C59.8617 2.41309 59.9272 2.43327 59.9878 2.47363C60.0483 2.50391 60.0988 2.55436 60.1392 2.625C60.1896 2.69564 60.2249 2.78646 60.2451 2.89746C60.2653 2.99837 60.2754 3.11947 60.2754 3.26074ZM76.7744 21.3794C76.835 21.5308 76.8602 21.6569 76.8501 21.7578C76.8501 21.8486 76.8148 21.9193 76.7441 21.9697C76.6836 22.0202 76.5827 22.0505 76.4414 22.0605C76.3102 22.0807 76.1387 22.0908 75.9268 22.0908C75.7148 22.0908 75.5433 22.0807 75.4121 22.0605C75.291 22.0505 75.1951 22.0303 75.1245 22C75.0539 21.9697 74.9984 21.9294 74.958 21.8789C74.9277 21.8285 74.8975 21.7679 74.8672 21.6973L72.9902 16.4751H64.3926L62.5913 21.667C62.5711 21.7376 62.5409 21.7982 62.5005 21.8486C62.4601 21.8991 62.4046 21.9445 62.334 21.9849C62.2633 22.0151 62.1624 22.0404 62.0312 22.0605C61.9102 22.0807 61.7537 22.0908 61.562 22.0908C61.3501 22.0908 61.1735 22.0807 61.0322 22.0605C60.891 22.0404 60.785 22.005 60.7144 21.9546C60.6538 21.9041 60.6185 21.8335 60.6084 21.7427C60.6084 21.6519 60.6387 21.5308 60.6992 21.3794L67.5562 2.74609C67.5864 2.66536 67.6318 2.59977 67.6924 2.54932C67.7529 2.48877 67.8286 2.44336 67.9194 2.41309C68.0203 2.38281 68.1364 2.36263 68.2676 2.35254C68.4089 2.33236 68.5653 2.32227 68.7368 2.32227C68.9185 2.32227 69.0749 2.33236 69.2061 2.35254C69.3473 2.36263 69.4634 2.38281 69.5542 2.41309C69.6551 2.44336 69.7308 2.48877 69.7812 2.54932C69.8418 2.59977 69.8872 2.66536 69.9175 2.74609L76.7744 21.3794ZM68.646 4.396H68.6309L64.9375 14.9312H72.4302L68.646 4.396ZM92.5469 16.5205C92.5469 17.0957 92.4762 17.6305 92.335 18.125C92.2038 18.6195 92.012 19.0685 91.7598 19.4722C91.5075 19.8758 91.1997 20.234 90.8364 20.5469C90.4731 20.8597 90.0594 21.1271 89.5952 21.3491C89.1411 21.561 88.6466 21.7225 88.1118 21.8335C87.577 21.9445 86.9564 22 86.25 22H81.1792C80.9976 22 80.8109 21.9344 80.6191 21.8032C80.4274 21.6619 80.3315 21.4097 80.3315 21.0464V3.3667C80.3315 3.00342 80.4274 2.75618 80.6191 2.625C80.8109 2.48372 80.9976 2.41309 81.1792 2.41309H85.3872C86.5275 2.41309 87.4508 2.52913 88.1572 2.76123C88.8636 2.99333 89.4438 3.32633 89.8979 3.76025C90.3621 4.18408 90.7052 4.70378 90.9272 5.31934C91.1593 5.9248 91.2754 6.60091 91.2754 7.34766C91.2754 7.81185 91.2199 8.25586 91.1089 8.67969C91.008 9.10352 90.8516 9.49707 90.6396 9.86035C90.4277 10.2236 90.1603 10.5516 89.8374 10.8442C89.5246 11.1369 89.1512 11.3841 88.7173 11.5859C89.242 11.6868 89.7365 11.8786 90.2007 12.1611C90.6649 12.4336 91.0685 12.7817 91.4116 13.2056C91.7648 13.6294 92.0423 14.1239 92.2441 14.689C92.446 15.244 92.5469 15.8545 92.5469 16.5205ZM89.3076 7.46875C89.3076 6.9541 89.237 6.48991 89.0957 6.07617C88.9544 5.65234 88.7274 5.29411 88.4146 5.00146C88.1118 4.69873 87.7132 4.46663 87.2188 4.30518C86.7243 4.14372 86.0633 4.06299 85.2358 4.06299H82.1782V11.0864H85.5386C86.2752 11.0864 86.8706 10.9906 87.3247 10.7988C87.7788 10.597 88.1522 10.3296 88.4448 9.99658C88.7375 9.66357 88.9544 9.28011 89.0957 8.84619C89.237 8.40218 89.3076 7.94303 89.3076 7.46875ZM90.5791 16.6719C90.5791 16.026 90.4731 15.4559 90.2612 14.9614C90.0594 14.467 89.7567 14.0532 89.353 13.7202C88.9595 13.3872 88.4701 13.1349 87.8848 12.9634C87.2995 12.7918 86.5729 12.7061 85.7051 12.7061H82.1782V20.3501H86.4468C87.0724 20.3501 87.6224 20.2744 88.0967 20.123C88.5811 19.9616 89.0049 19.7295 89.3682 19.4268C89.7415 19.1139 90.0342 18.7305 90.2461 18.2764C90.4681 17.8122 90.5791 17.2773 90.5791 16.6719ZM113.769 21.1523C113.769 21.2936 113.758 21.4147 113.738 21.5156C113.718 21.6165 113.688 21.7074 113.647 21.7881C113.607 21.8587 113.557 21.9142 113.496 21.9546C113.436 21.9849 113.365 22 113.284 22H104.792C104.611 22 104.424 21.9344 104.232 21.8032C104.041 21.6619 103.945 21.4097 103.945 21.0464V2.71582C103.945 2.65527 103.96 2.59977 103.99 2.54932C104.021 2.49886 104.071 2.4585 104.142 2.42822C104.212 2.39795 104.308 2.37272 104.429 2.35254C104.55 2.33236 104.697 2.32227 104.868 2.32227C105.05 2.32227 105.196 2.33236 105.307 2.35254C105.428 2.37272 105.524 2.39795 105.595 2.42822C105.665 2.4585 105.716 2.49886 105.746 2.54932C105.776 2.59977 105.792 2.65527 105.792 2.71582V20.3198H113.284C113.365 20.3198 113.436 20.34 113.496 20.3804C113.557 20.4106 113.607 20.4611 113.647 20.5317C113.688 20.5923 113.718 20.6781 113.738 20.7891C113.758 20.89 113.769 21.0111 113.769 21.1523ZM130.843 21.3794C130.903 21.5308 130.929 21.6569 130.918 21.7578C130.918 21.8486 130.883 21.9193 130.812 21.9697C130.752 22.0202 130.651 22.0505 130.51 22.0605C130.379 22.0807 130.207 22.0908 129.995 22.0908C129.783 22.0908 129.612 22.0807 129.48 22.0605C129.359 22.0505 129.264 22.0303 129.193 22C129.122 21.9697 129.067 21.9294 129.026 21.8789C128.996 21.8285 128.966 21.7679 128.936 21.6973L127.059 16.4751H118.461L116.66 21.667C116.639 21.7376 116.609 21.7982 116.569 21.8486C116.528 21.8991 116.473 21.9445 116.402 21.9849C116.332 22.0151 116.231 22.0404 116.1 22.0605C115.979 22.0807 115.822 22.0908 115.63 22.0908C115.418 22.0908 115.242 22.0807 115.101 22.0605C114.959 22.0404 114.853 22.005 114.783 21.9546C114.722 21.9041 114.687 21.8335 114.677 21.7427C114.677 21.6519 114.707 21.5308 114.768 21.3794L121.625 2.74609C121.655 2.66536 121.7 2.59977 121.761 2.54932C121.821 2.48877 121.897 2.44336 121.988 2.41309C122.089 2.38281 122.205 2.36263 122.336 2.35254C122.477 2.33236 122.634 2.32227 122.805 2.32227C122.987 2.32227 123.143 2.33236 123.274 2.35254C123.416 2.36263 123.532 2.38281 123.623 2.41309C123.723 2.44336 123.799 2.48877 123.85 2.54932C123.91 2.59977 123.956 2.66536 123.986 2.74609L130.843 21.3794ZM122.714 4.396H122.699L119.006 14.9312H126.499L122.714 4.396ZM146.615 16.5205C146.615 17.0957 146.545 17.6305 146.403 18.125C146.272 18.6195 146.08 19.0685 145.828 19.4722C145.576 19.8758 145.268 20.234 144.905 20.5469C144.542 20.8597 144.128 21.1271 143.664 21.3491C143.209 21.561 142.715 21.7225 142.18 21.8335C141.645 21.9445 141.025 22 140.318 22H135.248C135.066 22 134.879 21.9344 134.688 21.8032C134.496 21.6619 134.4 21.4097 134.4 21.0464V3.3667C134.4 3.00342 134.496 2.75618 134.688 2.625C134.879 2.48372 135.066 2.41309 135.248 2.41309H139.456C140.596 2.41309 141.519 2.52913 142.226 2.76123C142.932 2.99333 143.512 3.32633 143.966 3.76025C144.431 4.18408 144.774 4.70378 144.996 5.31934C145.228 5.9248 145.344 6.60091 145.344 7.34766C145.344 7.81185 145.288 8.25586 145.177 8.67969C145.076 9.10352 144.92 9.49707 144.708 9.86035C144.496 10.2236 144.229 10.5516 143.906 10.8442C143.593 11.1369 143.22 11.3841 142.786 11.5859C143.31 11.6868 143.805 11.8786 144.269 12.1611C144.733 12.4336 145.137 12.7817 145.48 13.2056C145.833 13.6294 146.111 14.1239 146.312 14.689C146.514 15.244 146.615 15.8545 146.615 16.5205ZM143.376 7.46875C143.376 6.9541 143.305 6.48991 143.164 6.07617C143.023 5.65234 142.796 5.29411 142.483 5.00146C142.18 4.69873 141.782 4.46663 141.287 4.30518C140.793 4.14372 140.132 4.06299 139.304 4.06299H136.247V11.0864H139.607C140.344 11.0864 140.939 10.9906 141.393 10.7988C141.847 10.597 142.221 10.3296 142.513 9.99658C142.806 9.66357 143.023 9.28011 143.164 8.84619C143.305 8.40218 143.376 7.94303 143.376 7.46875ZM144.647 16.6719C144.647 16.026 144.542 15.4559 144.33 14.9614C144.128 14.467 143.825 14.0532 143.421 13.7202C143.028 13.3872 142.538 13.1349 141.953 12.9634C141.368 12.7918 140.641 12.7061 139.773 12.7061H136.247V20.3501H140.515C141.141 20.3501 141.691 20.2744 142.165 20.123C142.649 19.9616 143.073 19.7295 143.437 19.4268C143.81 19.1139 144.103 18.7305 144.314 18.2764C144.536 17.8122 144.647 17.2773 144.647 16.6719Z" fill="black"/>
</svg>
