<svg width="213" height="107" viewBox="0 0 213 107" fill="none" xmlns="http://www.w3.org/2000/svg">
<rect width="213" height="107" rx="8" fill="#F0F0F0"/>
<path d="M106.5 24.5C106.5 20.9101 103.59 18 100 18H58C54.4099 18 51.5 20.9101 51.5 24.5V36.5H45.5V42.5H51.5V48.5H45.5V54.5H51.5V60.5H45.5V66.5H51.5V72.5H45.5V78.5H51.5V84.5C51.5 88.0901 54.4099 91 58 91H100C103.59 91 106.5 88.0901 106.5 84.5V24.5Z" fill="#D9D9D9"/>
<path d="M106.5 24.5C106.5 20.9101 109.41 18 113 18H155C158.59 18 161.5 20.9101 161.5 24.5V84.5C161.5 88.0901 158.59 91 155 91H113C109.41 91 106.5 88.0901 106.5 84.5V24.5Z" fill="#D9D9D9"/>
<path d="M106.5 36.5H112.5V42.5H106.5V36.5Z" fill="#F0F0F0"/>
<path d="M106.5 48.5H112.5V54.5H106.5V48.5Z" fill="#F0F0F0"/>
<path d="M106.5 60.5H112.5V66.5H106.5V60.5Z" fill="#F0F0F0"/>
<path d="M106.5 72.5H112.5V78.5H106.5V72.5Z" fill="#F0F0F0"/>
</svg>
