<?xml version="1.0" encoding="UTF-8"?>
<svg id="Layer_2" data-name="Layer 2" xmlns="http://www.w3.org/2000/svg" viewBox="0 0 179.39 234.79">
  <defs>
    <style>
      .cls-1 {
        fill: #fde020;
      }

      .cls-2 {
        fill: #fff;
      }

      .cls-3 {
        fill: #d4da30;
      }

      .cls-4 {
        fill: #ef7b2b;
      }

      .cls-5 {
        fill: #ffd226;
      }

      .cls-6 {
        fill: #51c3ef;
      }

      .cls-7 {
        fill: #e94893;
      }

      .cls-8 {
        fill: #fcbe24;
      }

      .cls-9 {
        fill: #433925;
      }

      .cls-10 {
        fill: #f3e626;
      }
    </style>
  </defs>
  <g id="Layer_1-2" data-name="Layer 1">
    <g>
      <path class="cls-9" d="m91.17,211.22c-8.19-.07-15.06-1.88-20.28-3.91h0c0,5.87,3.76,11.18,9.39,12.83,3.13.92,6.84,1.6,11.03,1.63,4.43.04,8.34-.66,11.62-1.61,5.66-1.65,9.45-6.96,9.45-12.85-5.41,2.1-12.61,3.98-21.2,3.91"/>
      <path class="cls-9" d="m91.31,227.42c-5.72-.05-10.52-1.31-14.17-2.73h0c0,4.1,2.63,7.81,6.56,8.96,2.19.64,4.78,1.12,7.71,1.14,3.09.02,5.83-.46,8.11-1.13,3.95-1.15,6.6-4.86,6.6-8.98-3.78,1.47-8.81,2.78-14.81,2.73"/>
      <path class="cls-8" d="m69.87,40.87c0,3.57-2.9,6.47-6.47,6.47s-6.47-2.9-6.47-6.47,2.9-6.47,6.47-6.47,6.47,2.9,6.47,6.47"/>
      <path class="cls-8" d="m41.69,25.19c0,3.58-2.9,6.47-6.47,6.47s-6.47-2.9-6.47-6.47,2.9-6.47,6.47-6.47,6.47,2.9,6.47,6.47"/>
      <path class="cls-5" d="m130.31,150.45c0,8.23-6.67,14.91-14.91,14.91s-14.91-6.67-14.91-14.91,6.68-14.91,14.91-14.91,14.91,6.67,14.91,14.91"/>
      <path class="cls-5" d="m117.96,57.87c0,7.23-5.87,13.1-13.1,13.1s-13.1-5.87-13.1-13.1,5.87-13.1,13.1-13.1,13.1,5.87,13.1,13.1"/>
      <path class="cls-5" d="m112.01,124.87c0,5.59-4.53,10.12-10.12,10.12s-10.12-4.53-10.12-10.12,4.53-10.12,10.12-10.12,10.12,4.53,10.12,10.12"/>
      <path class="cls-8" d="m94.08,164.02c0,4.75-3.85,8.61-8.61,8.61s-8.61-3.85-8.61-8.61,3.85-8.61,8.61-8.61,8.61,3.85,8.61,8.61"/>
      <path class="cls-7" d="m99.27,95.1c0,7.23-5.87,13.1-13.1,13.1s-13.1-5.87-13.1-13.1,5.87-13.1,13.1-13.1,13.1,5.87,13.1,13.1"/>
      <path class="cls-7" d="m112.37,177.12c0,3.62-2.93,6.55-6.55,6.55s-6.55-2.93-6.55-6.55,2.93-6.55,6.55-6.55,6.55,2.93,6.55,6.55"/>
      <path class="cls-5" d="m94.61,182.79c0,3.62-2.93,6.55-6.55,6.55s-6.55-2.93-6.55-6.55,2.93-6.55,6.55-6.55,6.55,2.93,6.55,6.55"/>
      <path class="cls-4" d="m94.61,144.37c0,3.62-2.93,6.55-6.55,6.55s-6.55-2.93-6.55-6.55,2.93-6.55,6.55-6.55,6.55,2.93,6.55,6.55"/>
      <path class="cls-4" d="m157.34,35.67c0,3.62-2.93,6.55-6.55,6.55s-6.55-2.93-6.55-6.55,2.93-6.55,6.55-6.55,6.55,2.93,6.55,6.55"/>
      <path class="cls-4" d="m179.39,74.12c0,3.62-2.93,6.55-6.55,6.55s-6.55-2.93-6.55-6.55,2.93-6.55,6.55-6.55,6.55,2.93,6.55,6.55"/>
      <path class="cls-6" d="m128.06,173.14c0,3.15-2.55,5.7-5.7,5.7s-5.7-2.55-5.7-5.7,2.55-5.7,5.7-5.7,5.7,2.55,5.7,5.7"/>
      <path class="cls-5" d="m67.49,177.96c0,2.66-2.16,4.82-4.82,4.82s-4.82-2.16-4.82-4.82,2.16-4.82,4.82-4.82,4.82,2.16,4.82,4.82"/>
      <path class="cls-7" d="m89.1,197.16c0,2-1.62,3.63-3.63,3.63s-3.63-1.62-3.63-3.63,1.63-3.63,3.63-3.63,3.63,1.62,3.63,3.63"/>
      <path class="cls-7" d="m78.4,176.24c0,2-1.62,3.63-3.63,3.63s-3.63-1.62-3.63-3.63,1.62-3.63,3.63-3.63,3.63,1.62,3.63,3.63"/>
      <path class="cls-4" d="m53.26,111.84c0,3.01-2.44,5.44-5.44,5.44s-5.44-2.44-5.44-5.44,2.44-5.44,5.44-5.44,5.44,2.44,5.44,5.44"/>
      <path class="cls-1" d="m22.69,119.58c0,1-.81,1.81-1.81,1.81s-1.82-.81-1.82-1.81.81-1.81,1.82-1.81,1.81.81,1.81,1.81"/>
      <path class="cls-1" d="m17.25,37.48c0,1-.81,1.81-1.82,1.81s-1.81-.81-1.81-1.81.81-1.81,1.81-1.81,1.82.81,1.82,1.81"/>
      <path class="cls-1" d="m15.43,78.76c0,1-.81,1.81-1.81,1.81s-1.81-.81-1.81-1.81.81-1.81,1.81-1.81,1.81.81,1.81,1.81"/>
      <path class="cls-1" d="m27.08,67.11c0,1-.81,1.81-1.81,1.81s-1.81-.81-1.81-1.81.81-1.81,1.81-1.81,1.81.81,1.81,1.81"/>
      <path class="cls-1" d="m28.17,153.76c0,1-.81,1.81-1.81,1.81s-1.82-.81-1.82-1.81.81-1.81,1.82-1.81,1.81.81,1.81,1.81"/>
      <path class="cls-8" d="m44.19,163.82c0,1-.81,1.81-1.81,1.81s-1.82-.81-1.82-1.81.81-1.81,1.82-1.81,1.81.81,1.81,1.81"/>
      <path class="cls-8" d="m167.82,121.02c0,1-.81,1.81-1.81,1.81s-1.81-.81-1.81-1.81.81-1.81,1.81-1.81,1.81.81,1.81,1.81"/>
      <path class="cls-8" d="m63.65,11.12c0,1-.81,1.81-1.81,1.81s-1.82-.81-1.82-1.81.81-1.81,1.82-1.81,1.81.81,1.81,1.81"/>
      <path class="cls-7" d="m93.45,201.37c0,1-.81,1.82-1.81,1.82s-1.82-.81-1.82-1.82.81-1.81,1.82-1.81,1.81.81,1.81,1.81"/>
      <path class="cls-10" d="m144.85,157.47c0,1-.81,1.81-1.81,1.81s-1.82-.81-1.82-1.81.81-1.81,1.82-1.81,1.81.81,1.81,1.81"/>
      <path class="cls-10" d="m142.83,123.68c0,1-.81,1.81-1.81,1.81s-1.81-.81-1.81-1.81.81-1.82,1.81-1.82,1.81.81,1.81,1.82"/>
      <path class="cls-10" d="m12.7,117.29c0,1-.81,1.81-1.81,1.81s-1.82-.81-1.82-1.81.81-1.82,1.82-1.82,1.81.81,1.81,1.82"/>
      <path class="cls-10" d="m83.65,117.77c0,1-.81,1.81-1.82,1.81s-1.81-.81-1.81-1.81.81-1.81,1.81-1.81,1.82.81,1.82,1.81"/>
      <path class="cls-6" d="m74.21,153.46c0,1-.81,1.81-1.81,1.81s-1.82-.81-1.82-1.81.81-1.81,1.82-1.81,1.81.81,1.81,1.81"/>
      <path class="cls-6" d="m90.67,31.97c0,1-.81,1.81-1.81,1.81s-1.81-.81-1.81-1.81.81-1.81,1.81-1.81,1.81.81,1.81,1.81"/>
      <path class="cls-6" d="m114.19,7.5c0,1-.81,1.81-1.82,1.81s-1.81-.81-1.81-1.81.81-1.81,1.81-1.81,1.82.81,1.82,1.81"/>
      <path class="cls-7" d="m70.74,113.66c0,1-.81,1.81-1.81,1.81s-1.81-.81-1.81-1.81.81-1.81,1.81-1.81,1.81.81,1.81,1.81"/>
      <path class="cls-7" d="m9.1,94.69c0,1-.81,1.81-1.81,1.81s-1.81-.81-1.81-1.81.81-1.81,1.81-1.81,1.81.81,1.81,1.81"/>
      <path class="cls-7" d="m50.73,141.44c0,1-.81,1.81-1.81,1.81s-1.81-.81-1.81-1.81.81-1.81,1.81-1.81,1.81.81,1.81,1.81"/>
      <path class="cls-3" d="m87.28,70.97c0,1-.81,1.81-1.82,1.81s-1.81-.81-1.81-1.81.81-1.81,1.81-1.81,1.82.81,1.82,1.81"/>
      <path class="cls-3" d="m140.51,52.42c0,1-.81,1.81-1.81,1.81s-1.81-.81-1.81-1.81.81-1.81,1.81-1.81,1.81.81,1.81,1.81"/>
      <path class="cls-3" d="m169.32,58.42c0,1-.81,1.81-1.81,1.81s-1.81-.81-1.81-1.81.81-1.81,1.81-1.81,1.81.81,1.81,1.81"/>
      <path class="cls-3" d="m102.9,164.02c0,2-1.62,3.63-3.63,3.63s-3.63-1.62-3.63-3.63,1.62-3.63,3.63-3.63,3.63,1.62,3.63,3.63"/>
      <path class="cls-3" d="m23.28,138.96c0,2-1.62,3.63-3.63,3.63s-3.63-1.62-3.63-3.63,1.63-3.63,3.63-3.63,3.63,1.62,3.63,3.63"/>
      <path class="cls-5" d="m141.02,162.1c0,2.95-2.39,5.34-5.34,5.34s-5.34-2.39-5.34-5.34,2.39-5.34,5.34-5.34,5.34,2.39,5.34,5.34"/>
      <path class="cls-5" d="m35.88,110.03c0,2-1.62,3.63-3.63,3.63s-3.63-1.62-3.63-3.63,1.62-3.63,3.63-3.63,3.63,1.62,3.63,3.63"/>
      <path class="cls-7" d="m133.94,129.65c0,2.01-1.62,3.63-3.63,3.63s-3.63-1.62-3.63-3.63,1.63-3.63,3.63-3.63,3.63,1.63,3.63,3.63"/>
      <path class="cls-7" d="m131.69,14.75c0,2-1.62,3.63-3.63,3.63s-3.63-1.62-3.63-3.63,1.63-3.63,3.63-3.63,3.63,1.62,3.63,3.63"/>
      <path class="cls-8" d="m65.3,96.26c0,3.06-2.48,5.54-5.54,5.54s-5.54-2.48-5.54-5.54,2.48-5.54,5.54-5.54,5.54,2.48,5.54,5.54"/>
      <path class="cls-5" d="m115.63,79.71c0,2-1.62,3.63-3.63,3.63s-3.63-1.62-3.63-3.63,1.62-3.63,3.63-3.63,3.63,1.63,3.63,3.63"/>
      <path class="cls-6" d="m39.51,54.23c0,2-1.62,3.63-3.63,3.63s-3.63-1.62-3.63-3.63,1.63-3.63,3.63-3.63,3.63,1.62,3.63,3.63"/>
      <path class="cls-6" d="m173.33,106.5c0,2-1.62,3.63-3.63,3.63s-3.63-1.63-3.63-3.63,1.62-3.63,3.63-3.63,3.63,1.62,3.63,3.63"/>
      <path class="cls-6" d="m14.51,60.23c0,2-1.62,3.63-3.63,3.63s-3.63-1.62-3.63-3.63,1.62-3.63,3.63-3.63,3.63,1.62,3.63,3.63"/>
      <path class="cls-6" d="m7.26,79.39c0,2-1.62,3.63-3.63,3.63s-3.63-1.62-3.63-3.63,1.63-3.63,3.63-3.63,3.63,1.63,3.63,3.63"/>
      <path class="cls-6" d="m168.82,88.85c0,1-.81,1.81-1.81,1.81s-1.81-.81-1.81-1.81.81-1.81,1.81-1.81,1.81.81,1.81,1.81"/>
      <path class="cls-6" d="m123.05,121.87c0,1-.81,1.81-1.81,1.81s-1.81-.81-1.81-1.81.81-1.81,1.81-1.81,1.81.81,1.81,1.81"/>
      <path class="cls-7" d="m161.92,129.65c0,2.83-2.29,5.12-5.12,5.12s-5.12-2.29-5.12-5.12,2.29-5.12,5.12-5.12,5.12,2.29,5.12,5.12"/>
      <path class="cls-7" d="m20.88,105.21c0,2-1.63,3.63-3.63,3.63s-3.63-1.63-3.63-3.63,1.62-3.63,3.63-3.63,3.63,1.62,3.63,3.63"/>
      <path class="cls-8" d="m156.8,79.71c0,7.7-6.24,13.94-13.94,13.94s-13.94-6.24-13.94-13.94,6.24-13.94,13.94-13.94,13.94,6.24,13.94,13.94"/>
      <path class="cls-6" d="m79.24,133.27c0,7.7-6.24,13.94-13.94,13.94s-13.94-6.24-13.94-13.94,6.24-13.94,13.94-13.94,13.94,6.24,13.94,13.94"/>
      <path class="cls-6" d="m107.1,193.54c0,4.32-3.51,7.83-7.83,7.83s-7.83-3.51-7.83-7.83,3.51-7.83,7.83-7.83,7.83,3.5,7.83,7.83"/>
      <path class="cls-6" d="m124.79,100.42c0,4.3-3.48,7.78-7.78,7.78s-7.78-3.48-7.78-7.78,3.48-7.78,7.78-7.78,7.78,3.48,7.78,7.78"/>
      <path class="cls-3" d="m138.7,112.98c0,2.64-2.14,4.79-4.79,4.79s-4.79-2.14-4.79-4.79,2.14-4.79,4.79-4.79,4.79,2.14,4.79,4.79"/>
      <path class="cls-7" d="m46,150.92c0,3.62-2.93,6.55-6.55,6.55s-6.55-2.93-6.55-6.55,2.93-6.55,6.55-6.55,6.55,2.93,6.55,6.55"/>
      <path class="cls-4" d="m83.41,54.23c0,3.62-2.93,6.55-6.55,6.55s-6.55-2.93-6.55-6.55,2.93-6.55,6.55-6.55,6.55,2.93,6.55,6.55"/>
      <path class="cls-4" d="m80.83,191.19c0,4.64-3.76,8.41-8.41,8.41s-8.41-3.76-8.41-8.41,3.76-8.41,8.41-8.41,8.41,3.76,8.41,8.41"/>
      <path class="cls-4" d="m44.08,130.96c0,4.89-3.97,8.86-8.86,8.86s-8.86-3.97-8.86-8.86,3.97-8.86,8.86-8.86,8.86,3.97,8.86,8.86"/>
      <path class="cls-5" d="m122.33,189.34c0,3.62-2.93,6.55-6.55,6.55s-6.55-2.93-6.55-6.55,2.93-6.55,6.55-6.55,6.55,2.93,6.55,6.55"/>
      <path class="cls-5" d="m48.92,84.26c0,6.63-5.38,12.01-12.01,12.01s-12.01-5.38-12.01-12.01,5.38-12.01,12.01-12.01,12.01,5.38,12.01,12.01"/>
      <path class="cls-4" d="m152.14,144.37c0,5.02-4.07,9.1-9.1,9.1s-9.1-4.07-9.1-9.1,4.07-9.1,9.1-9.1,9.1,4.07,9.1,9.1"/>
      <path class="cls-3" d="m67.94,160.18c0,5.58-4.52,10.1-10.1,10.1s-10.1-4.52-10.1-10.1,4.52-10.1,10.1-10.1,10.1,4.52,10.1,10.1"/>
      <path class="cls-3" d="m121.24,32.68c0,2.57-2.08,4.66-4.66,4.66s-4.65-2.08-4.65-4.66,2.08-4.66,4.65-4.66,4.66,2.08,4.66,4.66"/>
      <path class="cls-3" d="m78.87,23.37c0,2.57-2.08,4.66-4.65,4.66s-4.65-2.08-4.65-4.66,2.08-4.66,4.65-4.66,4.65,2.08,4.65,4.66"/>
      <path class="cls-3" d="m93.75,4.66c0,2.57-2.08,4.65-4.66,4.65s-4.65-2.08-4.65-4.65,2.08-4.66,4.65-4.66,4.66,2.08,4.66,4.66"/>
      <path class="cls-5" d="m157.68,108.84c0,3.32-2.69,6-6,6s-6-2.69-6-6,2.69-6,6-6,6,2.69,6,6"/>
      <path class="cls-2" d="m66.55,39.43c0,1.07-.87,1.94-1.94,1.94s-1.94-.87-1.94-1.94.87-1.94,1.94-1.94,1.94.87,1.94,1.94"/>
      <path class="cls-2" d="m123.26,147.06c0,2.47-2,4.47-4.47,4.47s-4.47-2-4.47-4.47,2-4.47,4.47-4.47,4.47,2,4.47,4.47"/>
      <path class="cls-2" d="m112.18,54.48c0,2.17-1.76,3.93-3.93,3.93s-3.93-1.76-3.93-3.93,1.76-3.93,3.93-3.93,3.93,1.76,3.93,3.93"/>
      <path class="cls-2" d="m108.31,121.48c0,1.68-1.36,3.04-3.04,3.04s-3.04-1.36-3.04-3.04,1.36-3.04,3.04-3.04,3.04,1.36,3.04,3.04"/>
      <path class="cls-2" d="m91.44,160.63c0,1.43-1.16,2.58-2.58,2.58s-2.58-1.16-2.58-2.58,1.16-2.58,2.58-2.58,2.58,1.16,2.58,2.58"/>
      <path class="cls-2" d="m93.49,91.71c0,2.17-1.76,3.93-3.93,3.93s-3.93-1.76-3.93-3.93,1.76-3.93,3.93-3.93,3.93,1.76,3.93,3.93"/>
      <path class="cls-2" d="m109.21,175.69c0,1.09-.88,1.96-1.96,1.96s-1.97-.88-1.97-1.96.88-1.97,1.97-1.97,1.96.88,1.96,1.97"/>
      <path class="cls-2" d="m91.91,181.36c0,1.09-.88,1.96-1.96,1.96s-1.97-.88-1.97-1.96.88-1.97,1.97-1.97,1.96.88,1.96,1.97"/>
      <path class="cls-2" d="m93.41,140.98c0,1.09-.88,1.96-1.97,1.96s-1.96-.88-1.96-1.96.88-1.97,1.96-1.97,1.97.88,1.97,1.97"/>
      <path class="cls-2" d="m124.97,171.46c0,.94-.77,1.71-1.71,1.71s-1.71-.76-1.71-1.71.76-1.71,1.71-1.71,1.71.77,1.71,1.71"/>
      <path class="cls-2" d="m65.71,176.02c0,.8-.65,1.45-1.45,1.45s-1.45-.65-1.45-1.45.65-1.45,1.45-1.45,1.45.65,1.45,1.45"/>
      <path class="cls-2" d="m51.21,110.09c0,.9-.73,1.63-1.63,1.63s-1.63-.73-1.63-1.63.73-1.63,1.63-1.63,1.63.73,1.63,1.63"/>
      <path class="cls-2" d="m139.06,160.32c0,.89-.72,1.6-1.6,1.6s-1.6-.72-1.6-1.6.72-1.6,1.6-1.6,1.6.72,1.6,1.6"/>
      <path class="cls-2" d="m160.22,127.93c0,.88-.72,1.6-1.6,1.6s-1.6-.72-1.6-1.6.72-1.6,1.6-1.6,1.6.72,1.6,1.6"/>
      <path class="cls-2" d="m62.9,93.65c0,.92-.74,1.66-1.66,1.66s-1.66-.74-1.66-1.66.74-1.66,1.66-1.66,1.66.74,1.66,1.66"/>
      <path class="cls-2" d="m37.78,52.42c0,.6-.49,1.09-1.09,1.09s-1.09-.49-1.09-1.09.49-1.09,1.09-1.09,1.09.49,1.09,1.09"/>
      <path class="cls-6" d="m56.17,54.48c0,2-1.62,3.63-3.63,3.63s-3.63-1.62-3.63-3.63,1.63-3.63,3.63-3.63,3.63,1.62,3.63,3.63"/>
      <path class="cls-2" d="m54.45,52.67c0,.6-.49,1.09-1.09,1.09s-1.09-.49-1.09-1.09.49-1.09,1.09-1.09,1.09.49,1.09,1.09"/>
      <path class="cls-6" d="m34.89,40.4c0,2-1.62,3.63-3.63,3.63s-3.63-1.62-3.63-3.63,1.62-3.63,3.63-3.63,3.63,1.62,3.63,3.63"/>
      <path class="cls-2" d="m33.16,38.58c0,.6-.49,1.09-1.09,1.09s-1.09-.49-1.09-1.09.49-1.09,1.09-1.09,1.09.49,1.09,1.09"/>
      <path class="cls-6" d="m56.94,27.7c0,2-1.62,3.63-3.63,3.63s-3.63-1.62-3.63-3.63,1.62-3.63,3.63-3.63,3.63,1.63,3.63,3.63"/>
      <path class="cls-2" d="m55.21,25.89c0,.6-.49,1.09-1.09,1.09s-1.09-.49-1.09-1.09.49-1.09,1.09-1.09,1.09.49,1.09,1.09"/>
      <path class="cls-2" d="m150.79,74.58c0,2.31-1.87,4.18-4.18,4.18s-4.18-1.87-4.18-4.18,1.87-4.18,4.18-4.18,4.18,1.87,4.18,4.18"/>
      <path class="cls-2" d="m72.88,129.89c0,2.31-1.87,4.18-4.18,4.18s-4.18-1.87-4.18-4.18,1.87-4.18,4.18-4.18,4.18,1.87,4.18,4.18"/>
      <path class="cls-2" d="m102.66,190.15c0,1.3-1.05,2.35-2.35,2.35s-2.35-1.05-2.35-2.35,1.05-2.35,2.35-2.35,2.35,1.05,2.35,2.35"/>
      <path class="cls-2" d="m122.73,97.03c0,1.29-1.05,2.33-2.33,2.33s-2.33-1.05-2.33-2.33,1.05-2.33,2.33-2.33,2.33,1.04,2.33,2.33"/>
      <path class="cls-2" d="m137.3,111.03c0,.79-.64,1.44-1.44,1.44s-1.44-.64-1.44-1.44.64-1.44,1.44-1.44,1.44.64,1.44,1.44"/>
      <path class="cls-2" d="m42.84,149.49c0,1.09-.88,1.96-1.96,1.96s-1.97-.88-1.97-1.96.88-1.97,1.97-1.97,1.96.88,1.96,1.97"/>
      <path class="cls-2" d="m80.25,52.81c0,1.09-.88,1.96-1.97,1.96s-1.96-.88-1.96-1.96.88-1.97,1.96-1.97,1.97.88,1.97,1.97"/>
      <path class="cls-4" d="m67.52,70.13c0,3.62-2.93,6.55-6.55,6.55s-6.55-2.93-6.55-6.55,2.93-6.55,6.55-6.55,6.55,2.93,6.55,6.55"/>
      <path class="cls-2" d="m64.35,68.71c0,1.09-.88,1.96-1.97,1.96s-1.96-.88-1.96-1.96.88-1.97,1.96-1.97,1.97.88,1.97,1.97"/>
      <path class="cls-2" d="m78.33,187.8c0,1.39-1.13,2.52-2.52,2.52s-2.52-1.13-2.52-2.52,1.13-2.52,2.52-2.52,2.52,1.13,2.52,2.52"/>
      <path class="cls-2" d="m38.6,127.58c0,1.47-1.19,2.66-2.66,2.66s-2.66-1.19-2.66-2.66,1.19-2.66,2.66-2.66,2.66,1.19,2.66,2.66"/>
      <path class="cls-2" d="m121.13,185.95c0,1.09-.88,1.96-1.96,1.96s-1.97-.88-1.97-1.96.88-1.97,1.97-1.97,1.96.88,1.96,1.97"/>
      <path class="cls-2" d="m43.9,80.87c0,1.99-1.61,3.6-3.6,3.6s-3.6-1.61-3.6-3.6,1.61-3.6,3.6-3.6,3.6,1.61,3.6,3.6"/>
      <path class="cls-2" d="m149.16,140.98c0,1.51-1.22,2.73-2.73,2.73s-2.73-1.22-2.73-2.73,1.22-2.73,2.73-2.73,2.73,1.22,2.73,2.73"/>
      <path class="cls-2" d="m64.26,156.79c0,1.67-1.36,3.03-3.03,3.03s-3.03-1.36-3.03-3.03,1.36-3.03,3.03-3.03,3.03,1.36,3.03,3.03"/>
      <path class="cls-2" d="m155.33,107.25c0,.99-.81,1.8-1.8,1.8s-1.8-.81-1.8-1.8.81-1.8,1.8-1.8,1.8.81,1.8,1.8"/>
    </g>
  </g>
</svg>